<svg width="127" height="127" viewBox="0 0 127 127" fill="none" xmlns="http://www.w3.org/2000/svg">
<path d="M87.4542 77.214C87.4542 83.228 85.5322 87.878 81.6882 91.164C77.8442 94.388 72.6362 96 66.0642 96H43.3722V30.156H64.0182C70.9002 30.156 76.2012 31.582 79.9212 34.434C83.6412 37.286 85.5012 41.688 85.5012 47.64C85.5012 50.802 84.5712 53.623 82.7112 56.103C80.9132 58.521 78.4332 60.319 75.2712 61.497C79.0532 62.365 82.0292 64.256 84.1992 67.17C86.3692 70.022 87.4542 73.37 87.4542 77.214ZM50.7192 58.893H64.2972C68.6372 58.893 72.0162 57.901 74.4342 55.917C76.8522 53.933 78.0612 51.112 78.0612 47.454C78.0612 43.61 76.8832 40.789 74.5272 38.991C72.2332 37.193 68.7302 36.294 64.0182 36.294H50.7192V58.893ZM80.1072 77.307C80.1072 73.463 78.9602 70.425 76.6662 68.193C74.4342 65.961 71.0242 64.845 66.4362 64.845H50.7192V89.955H66.0642C70.4662 89.955 73.9072 88.839 76.3872 86.607C78.8672 84.313 80.1072 81.213 80.1072 77.307Z" fill="black"/>
</svg>
