<svg width="127" height="127" viewBox="0 0 127 127" fill="none" xmlns="http://www.w3.org/2000/svg">
<path d="M90.4781 76.912C90.4781 83.546 88.3391 88.568 84.0611 91.978C79.8451 95.326 73.6451 97 65.4611 97H38.7701V29.296H63.2291C71.5371 29.296 77.9231 30.877 82.3871 34.039C86.9131 37.139 89.1761 41.789 89.1761 47.989C89.1761 51.151 88.3701 54.003 86.7581 56.545C85.2081 59.087 82.8521 61.04 79.6901 62.404C83.3481 63.334 86.0451 65.132 87.7811 67.798C89.5791 70.402 90.4781 73.44 90.4781 76.912ZM54.4871 57.289H63.1361C70.0181 57.289 73.4591 54.809 73.4591 49.849C73.4591 47.059 72.6531 45.044 71.0411 43.804C69.4291 42.564 66.8251 41.944 63.2291 41.944H54.4871V57.289ZM74.8541 76.819C74.8541 73.967 74.1411 71.797 72.7151 70.309C71.3511 68.821 69.1191 68.077 66.0191 68.077H54.4871V84.445H65.4611C68.6231 84.445 70.9791 83.732 72.5291 82.306C74.0791 80.88 74.8541 79.051 74.8541 76.819Z" fill="black"/>
</svg>
