<svg width="127" height="127" viewBox="0 0 127 127" fill="none" xmlns="http://www.w3.org/2000/svg">
<path d="M50.6487 30.156H57.3447L82.3617 96H74.8287L68.3187 78.237H39.7677L33.2577 96H25.6317L50.6487 30.156ZM53.9967 39.177L41.9997 72.192H66.0867L53.9967 39.177Z" fill="black"/>
<path d="M103.414 26.5858C102.633 25.8047 101.367 25.8047 100.586 26.5858L87.8579 39.3137C87.0768 40.0948 87.0768 41.3611 87.8579 42.1421C88.6389 42.9232 89.9052 42.9232 90.6863 42.1421L102 30.8284L113.314 42.1421C114.095 42.9232 115.361 42.9232 116.142 42.1421C116.923 41.3611 116.923 40.0948 116.142 39.3137L103.414 26.5858ZM100.586 97.4142C101.367 98.1953 102.633 98.1953 103.414 97.4142L116.142 84.6863C116.923 83.9052 116.923 82.6389 116.142 81.8579C115.361 81.0768 114.095 81.0768 113.314 81.8579L102 93.1716L90.6863 81.8579C89.9052 81.0768 88.6389 81.0768 87.8579 81.8579C87.0768 82.6389 87.0768 83.9052 87.8579 84.6863L100.586 97.4142ZM100 28L100 96L104 96L104 28L100 28Z" fill="black"/>
</svg>
